<svg xmlns="http://www.w3.org/2000/svg" enable-background="new 0 0 24 24" viewBox="0 0 24 24" id="meetup"><path d="m20.732 21.531c-1.319 0-2.774-.339-3.173-.598-1.901-1.029-2.853-2.905-2.449-4.876.402-1.189 1.259-2.905 2.014-4.419.595-1.191 1.334-2.673 1.369-2.989.036-.275-.003-.387-.03-.419-.136-.021-.349.083-.657.449-.346.673-.417.802-.509.967-.163.294-.409.739-2.679 5.17-.292.569-.523 1.037-.702 1.396-.277.559-.388.781-.472.902-.618 1.332-1.968 1.756-2.949 1.476-.931-.268-1.433-1.114-1.28-2.156-.005-.115.07-.335 1.011-2.669.572-1.419 1.437-3.564 1.485-3.911.039-.289.051-.717-.275-.821-.219-.069-.475.028-.566.207l-.014-.007c-.519 1.459-3.789 9.523-3.824 9.593l-.139.211c-.338.498-.629.928-1.07 1.143-1.622.793-3.568.405-4.626-.922-1.175-1.475-.691-2.952-.179-4.516l.182-.565c.352-1.118.657-2.109.929-2.991 1.663-5.398 2.109-6.849 4.275-7.694 1.755-.685 3.046.013 3.986.524.392.212.753.413.985.401h.001c.177-.01.596-.368.901-.63.682-.583 1.529-1.307 2.604-1.32 1.146.018 2.065.562 2.669.943.184.116.435.274.521.292.062.008.105-.01.271-.094.256-.13.644-.326 1.364-.326 2.045.099 3.13 1.035 3.438 2.948.159 1.234-.754 3.314-1.722 5.515-.941 2.145-2.113 4.813-1.717 5.771.055.134.136.213.271.266.514.201.85.218 1.205.237.379.02.77.041 1.277.277.593.15 1.029.714 1.071 1.397.04.657-.318 1.216-.918 1.444-.442.287-1.139.394-1.879.394zm-2.364-14.327c.342 0 .645.132.852.372.171.198.355.56.268 1.16.005.356-.399 1.207-1.469 3.35-.741 1.486-1.581 3.169-1.944 4.234-.296 1.462.463 2.924 1.996 3.756.437.273 3.256.769 4.019.21.043-.031.091-.056.141-.072.216-.07.317-.224.304-.458-.016-.242-.162-.458-.334-.492-.043-.008-.084-.022-.124-.042-.351-.171-.601-.185-.945-.203-.38-.02-.853-.044-1.516-.304-.386-.15-.673-.433-.831-.815-.56-1.353.55-3.88 1.726-6.556.869-1.98 1.769-4.027 1.647-4.97-.228-1.406-.944-2.017-2.474-2.091-.458 0-.677.111-.889.218-.207.105-.469.237-.836.195-.293-.032-.579-.212-.94-.44-.557-.352-1.249-.789-2.093-.789-.01 0-.02 0-.03 0-.713.009-1.379.578-1.966 1.081-.526.45-.98.838-1.494.868-.526.029-1.001-.238-1.521-.52-.854-.464-1.82-.99-3.146-.472-1.665.648-2.029 1.681-3.684 7.056-.272.883-.578 1.877-.932 2.998l-.186.575c-.545 1.662-.791 2.576.01 3.582.768.962 2.2 1.234 3.406.646.201-.098.423-.426.681-.806l.108-.16c.223-.443 3.582-8.955 3.782-9.478.008-.019.016-.036.025-.054.318-.62 1.073-.92 1.762-.704.571.183 1.125.771.964 1.875.005.266-.384 1.287-1.551 4.184-.424 1.051-.904 2.243-.95 2.442-.079.546.122.919.568 1.047.591.172 1.421-.147 1.783-.975.025-.058.062-.111.107-.155.023-.046.149-.31.358-.73.18-.362.413-.833.707-1.408 2.277-4.446 2.519-4.881 2.695-5.2.091-.165.161-.292.518-.987.017-.032.036-.062.059-.089.48-.583.94-.879 1.369-.879z"></path></svg>